<svg width="21" height="812" viewBox="0 0 21 812" fill="none" xmlns="http://www.w3.org/2000/svg">
<g clip-path="url(#clip0_3_364)">
<circle cx="18" cy="29" r="3" fill="#0A0A0A"/>
<path d="M18 29.5L15.75 28L13.5 27L11.5 26.5H9H6.75L4.5 27L2.25 28L0 29.5" stroke="#0A0A0A"/>
<circle cx="18" cy="55" r="3" fill="#0A0A0A"/>
<path d="M18 55.5L15.75 54L13.5 53L11.5 52.5H9H6.75L4.5 53L2.25 54L0 55.5" stroke="#0A0A0A"/>
<circle cx="18" cy="81" r="3" fill="#0A0A0A"/>
<path d="M18 81.5L15.75 80L13.5 79L11.5 78.5H9H6.75L4.5 79L2.25 80L0 81.5" stroke="#0A0A0A"/>
<circle cx="18" cy="107" r="3" fill="#0A0A0A"/>
<path d="M18 107.5L15.75 106L13.5 105L11.5 104.5H9H6.75L4.5 105L2.25 106L0 107.5" stroke="#0A0A0A"/>
<circle cx="18" cy="133" r="3" fill="#0A0A0A"/>
<path d="M18 133.5L15.75 132L13.5 131L11.5 130.5H9H6.75L4.5 131L2.25 132L0 133.5" stroke="#0A0A0A"/>
<circle cx="18" cy="159" r="3" fill="#0A0A0A"/>
<path d="M18 159.5L15.75 158L13.5 157L11.5 156.5H9H6.75L4.5 157L2.25 158L0 159.5" stroke="#0A0A0A"/>
<circle cx="18" cy="185" r="3" fill="#0A0A0A"/>
<path d="M18 185.5L15.75 184L13.5 183L11.5 182.5H9H6.75L4.5 183L2.25 184L0 185.5" stroke="#0A0A0A"/>
<circle cx="18" cy="211" r="3" fill="#0A0A0A"/>
<path d="M18 211.5L15.75 210L13.5 209L11.5 208.5H9H6.75L4.5 209L2.25 210L0 211.5" stroke="#0A0A0A"/>
<circle cx="18" cy="237" r="3" fill="#0A0A0A"/>
<path d="M18 237.5L15.75 236L13.5 235L11.5 234.5H9H6.75L4.5 235L2.25 236L0 237.5" stroke="#0A0A0A"/>
<circle cx="18" cy="263" r="3" fill="#0A0A0A"/>
<path d="M18 263.5L15.75 262L13.5 261L11.5 260.5H9H6.75L4.5 261L2.25 262L0 263.5" stroke="#0A0A0A"/>
<circle cx="18" cy="289" r="3" fill="#0A0A0A"/>
<path d="M18 289.5L15.75 288L13.5 287L11.5 286.5H9H6.75L4.5 287L2.25 288L0 289.5" stroke="#0A0A0A"/>
<circle cx="18" cy="315" r="3" fill="#0A0A0A"/>
<path d="M18 315.5L15.75 314L13.5 313L11.5 312.5H9H6.75L4.5 313L2.25 314L0 315.5" stroke="#0A0A0A"/>
<circle cx="18" cy="341" r="3" fill="#0A0A0A"/>
<path d="M18 341.5L15.75 340L13.5 339L11.5 338.5H9H6.75L4.5 339L2.25 340L0 341.5" stroke="#0A0A0A"/>
<circle cx="18" cy="367" r="3" fill="#0A0A0A"/>
<path d="M18 367.5L15.75 366L13.5 365L11.5 364.5H9H6.75L4.5 365L2.25 366L0 367.5" stroke="#0A0A0A"/>
<circle cx="18" cy="393" r="3" fill="#0A0A0A"/>
<path d="M18 393.5L15.75 392L13.5 391L11.5 390.5H9H6.75L4.5 391L2.25 392L0 393.5" stroke="#0A0A0A"/>
<circle cx="18" cy="419" r="3" fill="#0A0A0A"/>
<path d="M18 419.5L15.75 418L13.5 417L11.5 416.5H9H6.75L4.5 417L2.25 418L0 419.5" stroke="#0A0A0A"/>
<circle cx="18" cy="445" r="3" fill="#0A0A0A"/>
<path d="M18 445.5L15.75 444L13.5 443L11.5 442.5H9H6.75L4.5 443L2.25 444L0 445.5" stroke="#0A0A0A"/>
<circle cx="18" cy="471" r="3" fill="#0A0A0A"/>
<path d="M18 471.5L15.75 470L13.5 469L11.5 468.5H9H6.75L4.5 469L2.25 470L0 471.5" stroke="#0A0A0A"/>
<circle cx="18" cy="497" r="3" fill="#0A0A0A"/>
<path d="M18 497.5L15.75 496L13.5 495L11.5 494.5H9H6.75L4.5 495L2.25 496L0 497.5" stroke="#0A0A0A"/>
<circle cx="18" cy="523" r="3" fill="#0A0A0A"/>
<path d="M18 523.5L15.75 522L13.5 521L11.5 520.5H9H6.75L4.5 521L2.25 522L0 523.5" stroke="#0A0A0A"/>
<circle cx="18" cy="549" r="3" fill="#0A0A0A"/>
<path d="M18 549.5L15.75 548L13.5 547L11.5 546.5H9H6.75L4.5 547L2.25 548L0 549.5" stroke="#0A0A0A"/>
<circle cx="18" cy="575" r="3" fill="#0A0A0A"/>
<path d="M18 575.5L15.75 574L13.5 573L11.5 572.5H9H6.75L4.5 573L2.25 574L0 575.5" stroke="#0A0A0A"/>
<circle cx="18" cy="601" r="3" fill="#0A0A0A"/>
<path d="M18 601.5L15.75 600L13.5 599L11.5 598.5H9H6.75L4.5 599L2.25 600L0 601.5" stroke="#0A0A0A"/>
<circle cx="18" cy="627" r="3" fill="#0A0A0A"/>
<path d="M18 627.5L15.75 626L13.5 625L11.5 624.5H9H6.75L4.5 625L2.25 626L0 627.5" stroke="#0A0A0A"/>
<circle cx="18" cy="653" r="3" fill="#0A0A0A"/>
<path d="M18 653.5L15.75 652L13.5 651L11.5 650.5H9H6.75L4.5 651L2.25 652L0 653.5" stroke="#0A0A0A"/>
<circle cx="18" cy="679" r="3" fill="#0A0A0A"/>
<path d="M18 679.5L15.75 678L13.5 677L11.5 676.5H9H6.75L4.5 677L2.25 678L0 679.5" stroke="#0A0A0A"/>
<circle cx="18" cy="705" r="3" fill="#0A0A0A"/>
<path d="M18 705.5L15.75 704L13.5 703L11.5 702.5H9H6.75L4.5 703L2.25 704L0 705.5" stroke="#0A0A0A"/>
<circle cx="18" cy="731" r="3" fill="#0A0A0A"/>
<path d="M18 731.5L15.75 730L13.5 729L11.5 728.5H9H6.75L4.5 729L2.25 730L0 731.5" stroke="#0A0A0A"/>
<circle cx="18" cy="757" r="3" fill="#0A0A0A"/>
<path d="M18 757.5L15.75 756L13.5 755L11.5 754.5H9H6.75L4.5 755L2.25 756L0 757.5" stroke="#0A0A0A"/>
<circle cx="18" cy="783" r="3" fill="#0A0A0A"/>
<path d="M18 783.5L15.75 782L13.5 781L11.5 780.5H9H6.75L4.5 781L2.25 782L0 783.5" stroke="#0A0A0A"/>
</g>
<rect x="0.5" y="0.5" width="20" height="811" stroke="black"/>
<defs>
<clipPath id="clip0_3_364">
<rect width="21" height="812" fill="white"/>
</clipPath>
</defs>
</svg>
