<svg width="125" height="81" viewBox="0 0 125 81" fill="none" xmlns="http://www.w3.org/2000/svg">
<path d="M2.14864 25.8454C13.0851 22.1999 21.7731 13.5028 32.4913 9.11802C35.9385 7.70781 39.5484 6.34685 43.2106 5.66017C45.8028 5.17413 47.4698 3.17201 50.1263 2.67777C56.1406 1.55884 63.1899 4.48693 68.9284 6.00595C74.9602 7.6026 80.4985 10.5006 86.1312 12.9649C90.2031 14.7463 93.7858 16.3573 97.6718 18.6703C101.062 20.6882 104.011 24.2638 107.57 25.8454C110.01 26.9299 113.085 29.4155 114.961 31.2915C116.853 33.1838 120.22 33.563 122.741 34.4036" stroke="black" stroke-width="3" stroke-linecap="round"/>
<path d="M72.1701 3.2829C72.8056 11.5439 75.8994 19.6536 77.5298 27.7472C79.1976 36.0265 79.2553 44.8242 81.1606 52.9895C82.1244 57.1201 83.0624 61.2675 83.0624 65.5242C83.0624 69.9803 85.1571 78.0865 79.6045 79.3556C70.6419 81.4042 56.6101 79.4522 48.8296 74.5147C44.8138 71.9661 35.7243 68.999 34.0473 63.9682" stroke="black" stroke-width="3" stroke-linecap="round"/>
</svg>

