<svg width="400" height="141" viewBox="0 0 400 141" fill="none" xmlns="http://www.w3.org/2000/svg">
<path d="M3.7336 37.3653C3.7336 34.4247 10.0847 30.2395 12.0253 28.7748C18.0098 24.2582 24.7646 20.6065 31.634 17.6072C44.0346 12.1929 59.5936 8.78613 72.3455 14.8433C87.8694 22.2172 106.672 25.7554 123.851 25.9362C144.468 26.1533 162.33 13.1084 179.876 3.75037" stroke="black" stroke-width="7" stroke-linecap="round"/>
<path d="M341.228 22.5747C335.885 29.973 331.368 38.4093 327.782 46.7775" stroke="black" stroke-width="7" stroke-linecap="round"/>
<path d="M83.7372 19.2132C91.5361 16.0021 101.357 36.7791 103.309 41.1003C107.192 49.6989 107.221 60.1528 107.268 69.4116C107.323 80.264 107.249 91.1134 105.251 101.831C102.717 115.424 93.5277 138.358 75.2961 132.682C64.2897 129.256 56.2321 119.944 49.8235 110.945C44.6559 103.688 44.826 97.6906 45.4162 89.1324" stroke="black" stroke-width="7" stroke-linecap="round"/>
<path d="M118.697 124.764C114.967 117.304 124.08 107.06 128.931 102.055C137.028 93.7007 147.146 87.2173 157.018 81.2142C160.028 79.3836 163.779 77.6973 167.065 76.4334C173.158 74.0898 167.511 78.4973 165.907 80.3925C158.073 89.6516 149.366 98.1762 141.144 107.098C137.115 111.47 124.771 129.898 132.815 135.708C139.674 140.661 152.314 122.941 154.852 120.058C161.242 112.796 166.738 104.934 169.119 95.4072C169.569 93.6085 169.629 83.1354 169.157 86.4432C168.933 88.0109 169.124 89.9383 170.875 90.477C190.288 96.4504 209.748 82.8712 227.31 76.5081C231.344 75.0467 231.914 75.4344 227.908 78.0021C223.739 80.6745 220.431 82.961 216.852 86.4432C206.385 96.6276 197.15 104.953 194.368 120.058C193.924 122.466 193.638 126.062 194.965 128.275C198.463 134.105 207.436 124.634 210.204 122.262C225.312 109.312 236.234 91.5301 245.985 74.4165C253.634 60.9946 261.292 42.3661 257.19 26.6086C253.867 13.838 240.176 27.9247 236.611 34.1906C228.659 48.1664 225.258 66.1358 229.626 81.7371C232.589 92.319 238.497 102.578 250.505 102.578C260.237 102.578 268.052 98.7461 276.949 95.7807C284.098 93.3975 291.69 90.821 298.201 86.9661C300.98 85.3207 303.769 83.0487 306.791 81.8865C309.454 80.8623 303.286 82.9948 302.944 83.119C298.155 84.8606 294.63 89.1309 290.88 92.4192C281.056 101.033 270.745 110.922 268.321 124.428C267.764 127.53 269.568 133.396 273.848 132.682C278.14 131.967 282.661 128.367 285.614 125.474C294.822 116.453 300.944 104.902 307.239 93.8385C308.411 91.78 309.874 89.884 310.974 87.7878C311.091 87.5648 311.591 85.7896 311.983 86.1817C313.017 87.2157 311.227 89.7423 311.273 90.9999C311.524 97.769 320.048 95.2882 323.748 94.5481C343.935 90.5108 364.359 78.8941 385.45 84.4263C389.453 85.4763 396.145 88.3498 395.535 93.465C394.755 99.9954 391.05 107.539 385.562 111.281C376.236 117.64 347.458 128.909 341.228 113.335" stroke="black" stroke-width="7" stroke-linecap="round"/>
</svg>
