<svg width="321" height="76" viewBox="0 0 321 76" fill="none" xmlns="http://www.w3.org/2000/svg">
<path d="M2.27351 28.8777C2.37284 28.3314 2.72531 27.6833 3.10839 27.2914C7.72397 22.5698 14.3414 18.948 19.9727 15.6868C27.8428 11.129 35.9488 8.34166 44.8725 7.06684C59.151 5.02707 73.4823 4.57739 87.8889 4.85445C92.7475 4.94788 97.7257 5.40818 102.499 6.33634C107.024 7.21626 111.137 9.05723 115.523 10.3854C126.393 13.6772 138.674 6.22459 148.041 1.82806" stroke="black" stroke-width="3" stroke-linecap="round"/>
<path d="M64.6379 5.96063C63.0253 6.16222 72.2042 32.3577 72.8822 34.6383C75.3919 43.0799 77.1335 52.9212 72.0682 60.8113C69.6713 64.5449 64.5851 66.4537 60.5888 67.7406C55.5469 69.3643 49.7969 69.4241 44.5594 68.8051C39.6126 68.2205 34.6746 66.5781 30.9303 63.1698C26.6268 59.2525 25.3851 53.748 23.6878 48.4135" stroke="black" stroke-width="3" stroke-linecap="round"/>
<path d="M89.4334 64.9438C89.5676 63.4676 90.5871 62.8286 91.7502 61.8966C101.026 54.4633 110.584 46.8935 120.553 40.3988C121.32 39.8992 125.653 37.4665 125.207 37.5603C121.852 38.2666 118.62 40.6655 115.836 42.5068C110.909 45.7655 106.193 49.3243 101.915 53.4018C99.8549 55.365 91.0077 62.1521 93.7956 65.8204C96.0461 68.7816 101.756 67.2586 104.544 66.1961C113.342 62.8447 122.448 55.0658 126.543 46.6186C128.007 43.6 129.254 40.4998 128.881 37.1428C128.842 36.7965 143.438 37.825 144.66 37.8942" stroke="black" stroke-width="3" stroke-linecap="round"/>
<path d="M175.091 61.1869C175.091 59.5463 176.01 58.2726 177.052 57.0335C184.746 47.8929 193.645 39.3892 204.123 33.6155C204.929 33.1715 206.41 31.8832 207.4 31.8832C207.674 31.8832 207.189 32.4117 206.982 32.5928C204.908 34.4157 202.847 36.2392 200.846 38.1447C195.988 42.7715 191.264 47.5255 186.486 52.233C184.765 53.9292 181.872 56.1856 182.5 58.9746C183.176 61.9795 186.095 64.1928 188.866 65.1526C194.869 67.2322 200.925 64.5695 205.772 60.9782C212.737 55.8178 217.514 47.5011 220.966 39.7518C224.579 31.643 227.404 24.2593 227.249 15.3111C227.163 10.3916 223.489 0.691585 216.834 6.08586C212.444 9.64361 211.341 15.9444 210.865 21.2178C210.145 29.1815 211.792 36.8526 215.456 43.947C217.253 47.4257 219.104 50.8519 223.262 51.6695C229.043 52.8061 235.487 49.7762 240.836 48.0378" stroke="black" stroke-width="3" stroke-linecap="round"/>
<path d="M250.604 46.1594C247.486 46.8791 243.441 51.0659 241.191 52.8383C237.952 55.3899 232.988 58.3823 231.444 62.5228C230.536 64.9567 231.941 66.1381 234.366 66.3631C239.774 66.8649 244.583 63.3388 248.433 59.9764C252.594 56.3434 256.806 52.1907 258.118 46.6603C258.464 45.2033 259.401 42.0126 257.888 40.7328C257.248 40.1908 255.468 39.4426 254.591 39.7936C254.251 39.9294 255.888 40.8272 256.052 40.8998C256.413 41.0606 256.638 41.4165 256.991 41.5677C257.672 41.8594 258.533 41.3641 259.078 41.1294C265.068 38.5476 270.726 35.2183 276.527 32.2589" stroke="black" stroke-width="3" stroke-linecap="round"/>
<path d="M294.56 18.7341C293.378 18.8818 292.882 22.4377 292.681 23.2423" stroke="black" stroke-width="3" stroke-linecap="round"/>
<path d="M310.339 37.5186C307.529 37.5186 305.941 38.9681 303.764 40.8371C300.994 43.2146 298.092 45.9311 299.318 49.8746C301.245 56.0677 310.625 56.1563 315.849 56.6787C316.417 56.7355 318.589 56.8166 318.896 57.4301C319.806 59.2506 315.133 62.5289 314.179 63.2533C309.085 67.1197 303.049 69.8367 297.064 71.9985C293.394 73.3243 289.44 74.7397 285.543 73.9604" stroke="black" stroke-width="3" stroke-linecap="round"/>
</svg>
