<svg width="264" height="82" viewBox="0 0 264 82" fill="none" xmlns="http://www.w3.org/2000/svg">

<path d="M1.81243 29.0673C9.95272 29.0673 17.9725 27.5113 26.2767 27.5113C32.0695 27.5113 38.3928 27.8772 43.955 29.4995C47.3713 30.496 52.3258 32.9574 55.9278 32.9574C58.3793 32.9574 60.4013 34.9035 62.4977 35.8966C64.5601 36.8735 68.7724 36.1138 70.883 35.4643C76.2796 33.8038 82.5414 30.9362 88.1723 30.6234C91.3296 30.4479 89.393 29.4865 88.1723 31.0124C86.5057 33.0956 83.7364 32.9148 81.5592 34.1244C77.6483 36.2971 71.1732 35.2915 66.7768 35.2915C63.7053 35.2915 61.4219 35.0219 58.6077 33.7354C55.8615 32.48 52.3137 29.8453 49.2715 29.8453C46.2049 29.8453 46.7661 31.3664 47.8883 33.7354C49.5913 37.3307 50.3 41.4438 52.3835 44.8005C54.5006 48.2113 54.2499 53.5242 55.1066 57.4649C55.763 60.4845 55.2665 62.5806 54.6743 65.2451C53.3929 71.0114 30.9756 67.664 27.5302 67.2334C25.2977 66.9543 20.8306 66.4121 20.8306 66.4121C20.8306 66.4121 24.8822 67.2276 26.709 68.1411C33.0249 71.299 36.7472 72.6522 43.566 69.9564C50.3511 67.2739 56.4341 62.1697 63.319 60.1448C70.6941 57.9756 77.3659 53.8776 84.6712 51.6298C85.4507 51.39 92.7539 46.934 92.7539 49.339C92.7539 51.3773 85.8086 55.7025 84.239 57.0759C80.8504 60.041 78.245 62.8894 75.5511 66.4121C74.8222 67.3654 71.9065 73.9962 75.1189 70.9073C79.2724 66.9135 83.893 63.8711 87.3943 59.2371C89.2323 56.8044 90.6301 53.4943 92.6675 51.4569C94.2621 49.8623 96.88 51.5463 98.6755 52.0188C101.1 52.6568 102.42 53.9989 104.597 55.0877C106.916 56.247 109.724 56.3528 111.988 57.5514C115.522 59.4223 119.649 61.677 123.486 59.021C125.614 57.5473 127.975 56.0584 128.672 53.6181C128.71 53.4879 130.447 51.5137 129.234 53.0994C127.049 55.9565 124.87 58.8384 123.01 61.9169C121.024 65.2049 119.646 68.744 117.737 72.0311C117.161 73.0223 115.403 75.4055 115.403 76.5263C115.403 80.2974 128.849 71.47 129.58 70.9073C142.863 60.6895 151.193 48.9544 156.811 32.9574C159.937 24.0545 160.698 13.4835 155.428 5.33781C151.289 -1.05877 144.745 2.22251 139.997 5.29458C136.076 7.83145 134.075 10.772 134.075 15.5385C134.075 24.4686 137.268 33.2928 139.997 41.6885C141.794 47.2174 144.19 53.013 147.647 57.681C151.599 63.0152 156.327 63.0118 162.689 62.3491C171.345 61.4475 179.096 55.7452 187.499 53.791C188.637 53.5263 194.429 52.1499 193.205 52.4078C187.263 53.6587 181.818 64.901 178.465 69.092C176.982 70.9468 172.995 76.3987 173.797 79.2062C174.724 82.4488 182.93 77.6995 184.084 76.7857C188.974 72.9144 192.275 68.2972 195.15 62.8678C195.726 61.7798 196.051 60.6674 197.095 60.0151C198.5 59.1369 197.261 57.5493 198.046 56.4708C199.212 54.8669 202.726 54.01 204.529 53.1858C217.214 47.387 229.327 42.2038 243.257 39.3544C251.562 37.6556 258.677 36.2501 261.281 45.1031C264.722 56.8017 253.281 63.1215 244.986 68.4004C243.33 69.454 239.084 73.1102 236.946 71.6853C235.909 70.9934 234.97 67.9994 234.439 67.9682C233.265 67.899 230.778 66.2609 229.339 65.4612C227.026 64.1763 225.586 64.0781 222.769 64.0781" stroke="black" stroke-width="3" stroke-linecap="round"/>
<path id="small" d="M218.101 21.2872C218.101 25.1868 214.693 29.1778 213.433 32.9574" stroke="black" stroke-width="3" stroke-linecap="round"/>
</svg>
