<svg width="279" height="73" viewBox="0 0 279 73" fill="none" xmlns="http://www.w3.org/2000/svg">
<path d="M1.88957 27.3331C1.88957 25.7039 3.74178 23.5317 5.34067 23.1764C6.4178 22.9371 7.10751 21.9795 8.11689 21.796C9.48913 21.5465 10.2781 20.4309 11.6907 20.4309C14.3219 20.4309 16.6179 19.0505 19.2831 19.0505C22.4033 19.0505 25.3849 17.847 28.394 17.67C30.9069 17.5222 33.4673 17.67 35.9864 17.67C37.3036 17.67 38.8193 17.4502 40.1124 17.6854C40.6668 17.7862 42.4055 18.205 42.7506 18.6363C43.2558 19.2678 44.4302 19.0904 45.174 19.3879C45.9004 19.6784 46.3362 20.0513 47.168 20.1701C47.4201 20.2062 48.584 20.3489 48.7632 20.4923C50.3592 21.7691 52.9768 22.1679 54.8985 22.977C55.6037 23.274 56.3682 23.0807 57.0458 23.4679C57.6354 23.8048 58.6318 24.1831 59.3159 24.2808C60.1824 24.4046 61.9691 24.4237 62.6443 24.9863C63.4078 25.6226 66.1095 25.6766 67.0463 25.6766C69.087 25.6766 71.0598 25.9527 73.1049 25.9527C75.4218 25.9527 78.7184 26.5663 80.9121 25.8913C82.1624 25.5066 83.3875 25.2995 84.6546 24.9097C85.1721 24.7504 85.7492 24.7306 86.2498 24.5876C86.8876 24.4053 85.7323 24.7034 85.5442 24.787C83.9708 25.4863 81.6547 25.1244 79.8844 25.1244C77.7499 25.1244 75.4607 25.4005 73.243 25.4005C70.8553 25.4005 68.4677 25.4005 66.08 25.4005C64.8335 25.4005 63.6747 24.5722 62.3528 24.5722C61.1246 24.5722 60.3149 24.012 59.1778 23.7593C58.6892 23.6507 58.2631 23.2946 57.7821 23.2071C57.121 23.0869 56.3528 23.3626 55.7881 22.8543C55.1872 22.3135 54.2796 21.8443 53.4567 21.8113C52.5165 21.7737 51.63 20.4822 50.7571 20.4309C49.465 20.3549 49.3677 19.5986 48.2724 19.1118C47.4751 18.7575 46.7223 18.5268 45.9256 18.0841C44.2293 17.1417 44.5209 19.4635 44.6986 20.707C44.8601 21.838 45.6086 22.8386 45.8029 24.0047C46.0067 25.2275 46.4512 26.4914 46.7539 27.7626C47.4361 30.6279 47.4441 33.5501 47.4441 36.5054C47.4441 38.2499 47.5086 40.008 47.4441 41.751C47.392 43.1567 46.7651 44.5622 46.6158 45.831C46.4717 47.0564 45.4509 48.5241 44.8213 49.5735C43.8079 51.2624 43.1141 53.0835 42.0911 54.7885C41.6681 55.4935 41.6534 55.8857 41.1554 56.3837C40.8946 56.6445 40.6123 57.4655 40.4038 57.8408C40.2649 58.091 40.3069 58.3362 40.2045 58.5924C40.0077 59.0843 39.4529 58.9681 39.2228 59.3593C39.0743 59.6118 39.185 59.9158 38.9927 60.1722C38.7074 60.5527 38.1918 60.3014 37.9344 60.6324C36.3552 62.6628 33.7201 63.8529 31.2163 64.5436C29.7011 64.9616 27.7719 65.1572 26.1853 65.1572C25.6331 65.1572 25.081 65.1572 24.5288 65.1572C23.9588 65.1572 23.7165 64.6718 23.1483 64.605C22.4158 64.5188 21.3716 62.7371 20.7863 62.2582C20.1777 61.7603 19.6589 60.9085 19.007 60.525C18.4517 60.1983 18.7156 59.4228 18.3015 59.0679C17.4378 58.3276 16.8336 56.6361 16.3842 55.6475C15.9838 54.7666 15.7704 52.7943 15.0038 52.181C14.7345 51.9656 14.3417 49.3742 14.3135 48.868C14.2577 47.8627 14.3135 46.838 14.3135 45.831C14.3135 44.7463 14.5896 43.8237 14.5896 42.794C14.5896 41.8591 15.6499 41.334 15.694 40.5853C15.7669 39.3456 14.8156 41.1634 14.3749 41.751C13.7952 42.5239 13.7614 44.2744 13.7614 45.2175C13.7614 46.5263 13.7614 47.8352 13.7614 49.1441C13.7614 49.8394 13.7614 50.5347 13.7614 51.23C13.7614 51.9743 14.2751 52.5551 14.3135 53.2854C14.3874 54.6896 15.0874 55.4143 15.694 56.4757C15.9276 56.8846 16.3025 57.6444 16.7983 57.7028C17.3766 57.7708 17.1366 58.5972 17.5039 58.8071C18.4041 59.3215 19.1223 59.9551 19.9733 60.617C20.8019 61.2615 21.6522 61.6044 22.4735 62.1815C23.3248 62.7797 24.4905 63.1863 25.2037 63.8994C26.3914 65.0872 29.8284 64.8811 31.431 64.8811C32.7617 64.8811 33.9869 64.6777 35.2962 64.605C35.9674 64.5677 36.1126 63.9998 36.554 63.6387C37.0279 63.2509 37.5755 63.3073 37.9957 62.8871C38.7943 62.0885 39.0803 61.0663 39.8363 60.3103C40.1196 60.027 40.372 59.2003 40.6032 58.8071C40.9413 58.2324 41.4699 57.7487 41.769 57.1506C42.0715 56.5455 42.8308 55.5604 43.4255 55.218C44.3494 54.686 44.8659 53.6548 45.6342 52.8866C46.6288 51.8919 47.6209 50.9948 48.7018 50.1104C49.3965 49.542 50.2942 49.4811 51.0332 49.006C51.9227 48.4342 52.8717 47.8225 53.7941 47.3341C55.6132 46.3711 57.6377 44.9475 59.592 44.3892C64.1553 43.0854 68.8326 42.5179 73.6111 42.5179C78.0068 42.5179 82.1655 42.9837 86.5105 43.3615C88.7436 43.5557 91.231 43.7903 93.4281 44.1898C95.1405 44.5011 96.597 45.2788 98.367 45.2788C98.6048 45.2788 99.9582 45.5549 99.1953 45.5549C98.436 45.5549 97.8094 45.331 97.0786 45.2788C95.378 45.1573 93.7286 43.964 91.9556 43.8984C88.257 43.7614 84.5469 43.0701 80.7587 43.0701C79.3435 43.0701 77.6699 42.8327 76.28 43.0854C74.6789 43.3765 73.7255 44.5869 72.4454 45.4015C71.5716 45.9576 69.7962 47.0541 69.5465 48.1777C69.2709 49.4176 68.1507 50.5251 68.1507 51.9049C68.1507 52.7723 67.7508 54.4049 67.4605 55.218C67.0953 56.2405 67.3224 57.5908 67.3224 58.6691C67.3224 59.5691 67.9272 60.5786 68.166 61.4146C68.3281 61.9819 70.2814 62.6884 70.7735 63.0712C71.3533 63.5221 73.6709 64.2993 74.4394 64.3289C75.8581 64.3835 77.1972 64.605 78.642 64.605C80.1456 64.605 84.3998 65.3462 85.5442 64.3289C86.3358 63.6252 87.2538 63.1855 88.1517 62.6724C88.7155 62.3502 89.782 61.7257 90.0997 61.1539C90.4772 60.4743 90.8575 60.6722 91.3421 60.1876C91.7313 59.7984 91.9091 59.2508 92.3084 58.8071C93.09 57.9387 93.29 56.9939 93.9649 56.169C94.6161 55.3731 94.876 54.0026 94.9312 53.0093C94.9853 52.0356 95.7595 51.2467 95.7595 50.2484C95.7595 49.3166 96.259 48.4351 96.3117 47.4875C96.3433 46.9185 95.9779 44.907 96.373 44.5119C97.0536 43.8314 99.4419 45.025 100.116 45.2175C101.161 45.5162 102.615 45.2788 103.705 45.2788C107.298 45.2788 111.114 44.6737 114.472 43.3462C117.093 42.3102 119.69 41.8003 122.126 40.4473C123.022 39.9494 124.258 39.3386 125.301 39.1895C126.876 38.9646 128.654 38.1696 130.27 37.8244C131.26 37.6132 132.825 37.3562 133.722 36.8581C134.557 36.3941 136.295 36.444 137.234 36.444C138.41 36.444 139.586 36.444 140.762 36.444C143.239 36.444 140.608 36.444 139.596 36.444C137.871 36.444 136.085 36.6505 134.412 37.0575C131.351 37.8021 128.334 39.0842 125.577 40.4626C124.693 40.9048 123.497 42.2971 123.092 43.2082C122.891 43.6603 122.013 44.0313 121.988 44.4506C121.954 45.0206 121.978 45.2428 121.712 45.7083C120.613 47.631 120.694 49.6704 120.316 51.7515C119.917 53.9478 119.779 56.106 119.779 58.393C119.779 59.3947 119.724 60.4096 120.117 61.2919C120.531 62.2234 120.499 63.21 120.945 64.0528C121.432 64.9737 122.781 65.7568 123.767 66.0468C124.745 66.3345 125.537 66.963 126.543 67.2278C127.215 67.4047 127.85 67.417 128.399 67.8567C129.712 68.907 132.894 68.7463 134.55 68.7463C136.922 68.7463 139.306 68.9721 141.452 67.78C142.436 67.2333 143.579 67.6254 144.412 66.875C145.202 66.1644 146.599 66.2855 147.051 65.4332C147.345 64.8761 148.191 64.9115 148.508 64.4363C148.849 63.9242 149.405 63.6146 149.811 63.1632C150.238 62.6893 151.551 60.5261 152.081 60.4637C152.696 60.3913 153.529 58.3063 153.891 57.8408C154.286 57.333 154.961 56.8684 155.18 56.261C155.467 55.4624 156.174 55.1893 156.468 54.5278C157.306 52.6428 158.071 50.8967 159.122 49.006C159.38 48.5404 159.191 48.0076 159.275 47.5029C159.341 47.1096 159.79 46.7563 159.812 46.3832C159.899 44.897 160.64 43.6226 160.64 42.0271C160.64 40.9354 160.916 39.9488 160.916 38.9288C160.916 38.0932 160.638 36.6556 160.978 35.8918C161.768 34.1142 161.468 31.6657 161.468 29.6798C161.468 28.3863 161.468 27.0928 161.468 25.7993C161.468 25.0574 161.663 22.298 161.054 21.8113C160.735 21.5561 160.874 20.4056 160.778 20.0014C160.473 18.7212 160.64 17.321 160.64 16.0135C160.64 14.2596 160.319 13.4332 159.873 11.8722C159.506 10.5857 159.674 7.69504 158.431 6.96394C157.867 6.63195 157.361 5.8806 156.836 5.46079C155.373 4.2898 154.03 3.71946 152.358 2.976C151.009 2.37644 147.944 1.92344 146.774 2.976C140.329 8.77714 139.934 18.7677 139.934 27.057C139.934 29.0356 139.934 31.0143 139.934 32.9929C139.934 34.1364 140.184 35.3181 140.47 36.3213C140.783 37.416 140.495 38.7638 140.746 39.8951C141.17 41.8023 141.923 43.857 142.142 45.831C142.255 46.8492 142.911 47.8006 142.971 48.868C143.016 49.6917 144.295 50.6271 144.351 51.6288C144.39 52.3397 145.505 53.0264 145.716 53.9756C145.94 54.9838 146.708 55.7617 147.25 56.7365C148.233 58.5058 149.597 58.6966 151.115 59.9115C151.845 60.4957 153.392 60.1477 153.799 60.7397C154.162 61.2667 156.193 61.8099 156.775 61.8441C157.87 61.9085 158.991 61.8441 160.088 61.8441C161.282 61.8441 161.826 60.5205 162.849 60.4637C163.338 60.4365 164.686 59.1676 164.797 58.6691C164.971 57.8863 165.837 57.697 166.101 56.9359C166.326 56.2855 166.976 56.0091 167.266 55.356C167.804 54.1471 168.363 53.2564 169.076 52.1657C169.972 50.7961 170.56 49.4648 171.561 48.1777C173.979 45.0686 177.472 43.2279 180.933 41.6897C182.435 41.0221 184.328 40.0193 185.933 39.7724C187.671 39.5049 189.168 38.6187 190.841 38.3613C192.151 38.1598 193.783 37.4594 195.028 36.9348C196.628 36.2611 198.875 35.6947 200.612 35.6157C202.474 35.5311 204.312 34.7875 206.195 34.7875C207.564 34.7875 208.93 34.5114 210.336 34.5114C210.944 34.5114 214.368 34.7875 212.529 34.7875C210.699 34.7875 208.869 34.7875 207.038 34.7875C205.823 34.7875 204.784 35.3159 203.618 35.5544C202.722 35.7377 201.964 35.6384 201.102 36.0299C199.671 36.6806 197.966 36.8889 196.654 37.9625C194.512 39.7156 191.548 40.7758 190.12 43.3462C189.743 44.0257 189.084 44.3488 188.801 45.1254C188.524 45.8869 188.134 46.6044 187.697 47.2728C187.458 47.6384 186.981 48.2946 186.884 48.7299C186.781 49.1919 186.332 49.4272 186.316 49.6962C186.24 50.9899 185.488 52.0006 185.488 53.4234C185.488 54.8389 184.936 56.1299 184.936 57.5647C184.936 59.9862 185.082 61.9408 186.178 63.9148C188.765 68.5706 195.894 70.7418 201.133 69.7893C202.745 69.4963 204.493 68.9526 205.888 68.0561C206.154 67.8851 207.419 67.2505 207.514 67.0898C207.884 66.4601 208.022 66.193 208.802 65.9701C209.04 65.9022 208.98 65.3474 209.078 65.1572C209.311 64.7051 209.805 64.6272 210.06 64.2062C210.712 63.1297 211.881 62.5023 212.652 61.5527C213.382 60.654 213.797 59.3683 214.339 58.393C215.741 55.8694 215.301 52.759 215.796 50.0337C216.424 46.5794 215.858 42.3608 215.858 38.8674C215.858 37.5995 215.858 36.3315 215.858 35.0636C215.858 34.3887 215.858 32.364 215.858 33.0389C215.858 33.823 216.078 34.0502 216.349 34.7261C216.818 35.8989 217.543 36.7709 218.128 37.8244C218.355 38.2329 220.173 40.262 220.551 40.3092C220.926 40.3561 221.818 41.5345 222.346 41.8277C222.867 42.1174 222.667 42.48 223.312 42.5179C223.457 42.5265 224.338 42.8344 224.417 42.9321C224.67 43.2485 225.16 43.3838 225.46 43.6836C225.793 44.017 226.356 43.7001 226.625 44.0364C227.015 44.5237 228.855 45.2788 229.539 45.2788C231.187 45.2788 232.876 45.783 234.509 45.831C235.423 45.8579 237.243 46.1783 237.945 45.5549C238.582 44.9885 240.12 44.9134 240.644 44.3892C241.274 43.7596 242.271 43.0899 243.19 42.5793C245.346 41.3818 246.649 39.7871 248.436 38.2232C249.276 37.4883 250.098 36.7717 250.384 35.7691C250.506 35.3436 251.451 34.9842 251.688 34.5114C252.02 33.8473 251.948 33.2847 252.7 32.8549C253.82 32.2147 255.681 33.8132 256.842 34.2353C258.074 34.6835 259.196 35.7922 260.323 36.1679C261.749 36.6432 263.185 38.2235 264.449 39.0362C265.631 39.7958 266.454 40.9109 267.471 41.8431C268.439 42.7309 269.165 44.1617 269.756 45.2788C270.222 46.1582 271.517 47.6001 271.628 48.5919C271.739 49.596 272.935 50.4597 273.008 51.4141C273.144 53.1864 274.853 54.9826 275.431 56.6598C275.728 57.5192 276.162 58.2515 276.536 59.0832C276.71 59.4695 276.387 60.1853 276.735 60.4637C277.327 60.9373 276.873 63.9639 276.873 64.743C276.873 65.8306 276.724 66.88 275.631 67.3659C275.021 67.6367 274.551 68.1828 273.898 68.4089C273.23 68.64 272.46 68.6584 271.904 69.1451C270.16 70.6705 266.798 70.2371 264.664 70.8936C263.553 71.2354 261.975 71.2311 260.799 71.2311C259.41 71.2311 258.969 71.2847 257.977 70.4028C256.206 68.829 255.113 67.5492 254.173 65.4332C253.264 63.3883 253.406 61.3723 253.406 59.0832" stroke="black" stroke-width="3" stroke-linecap="round"/>
<path d="M237.393 21.2592C237.393 20.1089 237.751 18.4852 238.098 17.394C238.432 16.345 238.851 15.3309 239.203 14.2956C239.604 13.1142 239.251 11.9314 239.877 10.7679C240.518 9.57822 240.405 7.63873 241.258 6.62653C241.594 6.22748 241.748 5.41505 242.086 5.24609" stroke="black" stroke-width="3" stroke-linecap="round"/>
</svg>
